<!-- businesscard_v1.svg -->
<!-- Generated using p5.plotSvg: -->
<!-- A Plotter-Oriented SVG Exporter for p5.js -->
<!-- Fri Jan 31 2025 15:00:13 GMT-0600 (Central Standard Time) -->
<!-- DPI: 96 -->
<svg xmlns="http://www.w3.org/2000/svg" width="3.5in" height="2in" viewBox="0 0 336 192">
  <style>
      circle, ellipse, line, path, polygon, polyline, rect, quad, text {
        fill: none;
        stroke: black;
        stroke-width: 1;
        stroke-linecap: round;
        stroke-linejoin: round;
        vector-effect: non-scaling-stroke;
      }
    </style>
<g vector-effect="non-scaling-stroke">
  <g>
    <g transform="translate(0, 96)">
      <g transform="rotate(0)">
        <line x1="0" y1="-96" x2="0" y2="12"/>
      </g>
    </g>
  </g>
  <g>
    <g transform="translate(1.866667, 96)">
      <g transform="rotate(1)">
        <line x1="0" y1="-96" x2="0" y2="12"/>
      </g>
    </g>
  </g>
  <g>
    <g transform="translate(3.733333, 96)">
      <g transform="rotate(2)">
        <line x1="0" y1="-96" x2="0" y2="12"/>
      </g>
    </g>
  </g>
  <g>
    <g transform="translate(5.600000, 96)">
      <g transform="rotate(3)">
        <line x1="0" y1="-96" x2="0" y2="12"/>
      </g>
    </g>
  </g>
  <g>
    <g transform="translate(7.466667, 96)">
      <g transform="rotate(4)">
        <line x1="0" y1="-96" x2="0" y2="12"/>
      </g>
    </g>
  </g>
  <g>
    <g transform="translate(9.333333, 96)">
      <g transform="rotate(5)">
        <line x1="0" y1="-96" x2="0" y2="12"/>
      </g>
    </g>
  </g>
  <g>
    <g transform="translate(11.200000, 96)">
      <g transform="rotate(6)">
        <line x1="0" y1="-96" x2="0" y2="12"/>
      </g>
    </g>
  </g>
  <g>
    <g transform="translate(13.066667, 96)">
      <g transform="rotate(7)">
        <line x1="0" y1="-96" x2="0" y2="12"/>
      </g>
    </g>
  </g>
  <g>
    <g transform="translate(14.933333, 96)">
      <g transform="rotate(8)">
        <line x1="0" y1="-96" x2="0" y2="12"/>
      </g>
    </g>
  </g>
  <g>
    <g transform="translate(16.800000, 96)">
      <g transform="rotate(9)">
        <line x1="0" y1="-96" x2="0" y2="12"/>
      </g>
    </g>
  </g>
  <g>
    <g transform="translate(18.666667, 96)">
      <g transform="rotate(10)">
        <line x1="0" y1="-96" x2="0" y2="12"/>
      </g>
    </g>
  </g>
  <g>
    <g transform="translate(20.533333, 96)">
      <g transform="rotate(11)">
        <line x1="0" y1="-96" x2="0" y2="12"/>
      </g>
    </g>
  </g>
  <g>
    <g transform="translate(22.400000, 96)">
      <g transform="rotate(12)">
        <line x1="0" y1="-96" x2="0" y2="12"/>
      </g>
    </g>
  </g>
  <g>
    <g transform="translate(24.266667, 96)">
      <g transform="rotate(13.000000)">
        <line x1="0" y1="-96" x2="0" y2="12"/>
      </g>
    </g>
  </g>
  <g>
    <g transform="translate(26.133333, 96)">
      <g transform="rotate(14)">
        <line x1="0" y1="-96" x2="0" y2="12"/>
      </g>
    </g>
  </g>
  <g>
    <g transform="translate(28, 96)">
      <g transform="rotate(15)">
        <line x1="0" y1="-96" x2="0" y2="12"/>
      </g>
    </g>
  </g>
  <g>
    <g transform="translate(29.866667, 96)">
      <g transform="rotate(16)">
        <line x1="0" y1="-96" x2="0" y2="12"/>
      </g>
    </g>
  </g>
  <g>
    <g transform="translate(31.733333, 96)">
      <g transform="rotate(17)">
        <line x1="0" y1="-96" x2="0" y2="12"/>
      </g>
    </g>
  </g>
  <g>
    <g transform="translate(33.600000, 96)">
      <g transform="rotate(18)">
        <line x1="0" y1="-96" x2="0" y2="12"/>
      </g>
    </g>
  </g>
  <g>
    <g transform="translate(35.466667, 96)">
      <g transform="rotate(19)">
        <line x1="0" y1="-96" x2="0" y2="12"/>
      </g>
    </g>
  </g>
  <g>
    <g transform="translate(37.333333, 96)">
      <g transform="rotate(20)">
        <line x1="0" y1="-96" x2="0" y2="12"/>
      </g>
    </g>
  </g>
  <g>
    <g transform="translate(39.200000, 96)">
      <g transform="rotate(21)">
        <line x1="0" y1="-96" x2="0" y2="12"/>
      </g>
    </g>
  </g>
  <g>
    <g transform="translate(41.066667, 96)">
      <g transform="rotate(22)">
        <line x1="0" y1="-96" x2="0" y2="12"/>
      </g>
    </g>
  </g>
  <g>
    <g transform="translate(42.933333, 96)">
      <g transform="rotate(23)">
        <line x1="0" y1="-96" x2="0" y2="12"/>
      </g>
    </g>
  </g>
  <g>
    <g transform="translate(44.800000, 96)">
      <g transform="rotate(24)">
        <line x1="0" y1="-96" x2="0" y2="12"/>
      </g>
    </g>
  </g>
  <g>
    <g transform="translate(46.666667, 96)">
      <g transform="rotate(25)">
        <line x1="0" y1="-96" x2="0" y2="12"/>
      </g>
    </g>
  </g>
  <g>
    <g transform="translate(48.533333, 96)">
      <g transform="rotate(26.000000)">
        <line x1="0" y1="-96" x2="0" y2="12"/>
      </g>
    </g>
  </g>
  <g>
    <g transform="translate(50.400000, 96)">
      <g transform="rotate(27)">
        <line x1="0" y1="-96" x2="0" y2="12"/>
      </g>
    </g>
  </g>
  <g>
    <g transform="translate(52.266667, 96)">
      <g transform="rotate(28)">
        <line x1="0" y1="-96" x2="0" y2="12"/>
      </g>
    </g>
  </g>
  <g>
    <g transform="translate(54.133333, 96)">
      <g transform="rotate(29.000000)">
        <line x1="0" y1="-96" x2="0" y2="12"/>
      </g>
    </g>
  </g>
  <g>
    <g transform="translate(56, 96)">
      <g transform="rotate(30)">
        <line x1="0" y1="-96" x2="0" y2="12"/>
      </g>
    </g>
  </g>
  <g>
    <g transform="translate(57.866667, 96)">
      <g transform="rotate(31)">
        <line x1="0" y1="-96" x2="0" y2="12"/>
      </g>
    </g>
  </g>
  <g>
    <g transform="translate(59.733333, 96)">
      <g transform="rotate(32)">
        <line x1="0" y1="-96" x2="0" y2="12"/>
      </g>
    </g>
  </g>
  <g>
    <g transform="translate(61.600000, 96)">
      <g transform="rotate(33)">
        <line x1="0" y1="-96" x2="0" y2="12"/>
      </g>
    </g>
  </g>
  <g>
    <g transform="translate(63.466667, 96)">
      <g transform="rotate(34)">
        <line x1="0" y1="-96" x2="0" y2="12"/>
      </g>
    </g>
  </g>
  <g>
    <g transform="translate(65.333333, 96)">
      <g transform="rotate(35)">
        <line x1="0" y1="-96" x2="0" y2="12"/>
      </g>
    </g>
  </g>
  <g>
    <g transform="translate(67.200000, 96)">
      <g transform="rotate(36)">
        <line x1="0" y1="-96" x2="0" y2="12"/>
      </g>
    </g>
  </g>
  <g>
    <g transform="translate(69.066667, 96)">
      <g transform="rotate(37)">
        <line x1="0" y1="-96" x2="0" y2="12"/>
      </g>
    </g>
  </g>
  <g>
    <g transform="translate(70.933333, 96)">
      <g transform="rotate(38)">
        <line x1="0" y1="-96" x2="0" y2="12"/>
      </g>
    </g>
  </g>
  <g>
    <g transform="translate(72.800000, 96)">
      <g transform="rotate(39)">
        <line x1="0" y1="-96" x2="0" y2="12"/>
      </g>
    </g>
  </g>
  <g>
    <g transform="translate(74.666667, 96)">
      <g transform="rotate(40)">
        <line x1="0" y1="-96" x2="0" y2="12"/>
      </g>
    </g>
  </g>
  <g>
    <g transform="translate(76.533333, 96)">
      <g transform="rotate(41)">
        <line x1="0" y1="-96" x2="0" y2="12"/>
      </g>
    </g>
  </g>
  <g>
    <g transform="translate(78.400000, 96)">
      <g transform="rotate(42)">
        <line x1="0" y1="-96" x2="0" y2="12"/>
      </g>
    </g>
  </g>
  <g>
    <g transform="translate(80.266667, 96)">
      <g transform="rotate(43)">
        <line x1="0" y1="-96" x2="0" y2="12"/>
      </g>
    </g>
  </g>
  <g>
    <g transform="translate(82.133333, 96)">
      <g transform="rotate(44)">
        <line x1="0" y1="-96" x2="0" y2="12"/>
      </g>
    </g>
  </g>
  <g>
    <g transform="translate(84, 96)">
      <g transform="rotate(45)">
        <line x1="0" y1="-96" x2="0" y2="12"/>
      </g>
    </g>
  </g>
  <g>
    <g transform="translate(85.866667, 96)">
      <g transform="rotate(46)">
        <line x1="0" y1="-96" x2="0" y2="12"/>
      </g>
    </g>
  </g>
  <g>
    <g transform="translate(87.733333, 96)">
      <g transform="rotate(47)">
        <line x1="0" y1="-96" x2="0" y2="12"/>
      </g>
    </g>
  </g>
  <g>
    <g transform="translate(89.600000, 96)">
      <g transform="rotate(48)">
        <line x1="0" y1="-96" x2="0" y2="12"/>
      </g>
    </g>
  </g>
  <g>
    <g transform="translate(91.466667, 96)">
      <g transform="rotate(49.000000)">
        <line x1="0" y1="-96" x2="0" y2="12"/>
      </g>
    </g>
  </g>
  <g>
    <g transform="translate(93.333333, 96)">
      <g transform="rotate(50)">
        <line x1="0" y1="-96" x2="0" y2="12"/>
      </g>
    </g>
  </g>
  <g>
    <g transform="translate(95.200000, 96)">
      <g transform="rotate(51)">
        <line x1="0" y1="-96" x2="0" y2="12"/>
      </g>
    </g>
  </g>
  <g>
    <g transform="translate(97.066667, 96)">
      <g transform="rotate(52.000000)">
        <line x1="0" y1="-96" x2="0" y2="12"/>
      </g>
    </g>
  </g>
  <g>
    <g transform="translate(98.933333, 96)">
      <g transform="rotate(53)">
        <line x1="0" y1="-96" x2="0" y2="12"/>
      </g>
    </g>
  </g>
  <g>
    <g transform="translate(100.800000, 96)">
      <g transform="rotate(54)">
        <line x1="0" y1="-96" x2="0" y2="12"/>
      </g>
    </g>
  </g>
  <g>
    <g transform="translate(102.666667, 96)">
      <g transform="rotate(55.000000)">
        <line x1="0" y1="-96" x2="0" y2="12"/>
      </g>
    </g>
  </g>
  <g>
    <g transform="translate(104.533333, 96)">
      <g transform="rotate(56)">
        <line x1="0" y1="-96" x2="0" y2="12"/>
      </g>
    </g>
  </g>
  <g>
    <g transform="translate(106.400000, 96)">
      <g transform="rotate(57)">
        <line x1="0" y1="-96" x2="0" y2="12"/>
      </g>
    </g>
  </g>
  <g>
    <g transform="translate(108.266667, 96)">
      <g transform="rotate(58.000000)">
        <line x1="0" y1="-96" x2="0" y2="12"/>
      </g>
    </g>
  </g>
  <g>
    <g transform="translate(110.133333, 96)">
      <g transform="rotate(59)">
        <line x1="0" y1="-96" x2="0" y2="12"/>
      </g>
    </g>
  </g>
  <g>
    <g transform="translate(112, 96)">
      <g transform="rotate(60)">
        <line x1="0" y1="-96" x2="0" y2="12"/>
      </g>
    </g>
  </g>
  <g>
    <g transform="translate(113.866667, 96)">
      <g transform="rotate(61)">
        <line x1="0" y1="-96" x2="0" y2="12"/>
      </g>
    </g>
  </g>
  <g>
    <g transform="translate(115.733333, 96)">
      <g transform="rotate(62)">
        <line x1="0" y1="-96" x2="0" y2="12"/>
      </g>
    </g>
  </g>
  <g>
    <g transform="translate(117.600000, 96)">
      <g transform="rotate(63.000000)">
        <line x1="0" y1="-96" x2="0" y2="12"/>
      </g>
    </g>
  </g>
  <g>
    <g transform="translate(119.466667, 96)">
      <g transform="rotate(64)">
        <line x1="0" y1="-96" x2="0" y2="12"/>
      </g>
    </g>
  </g>
  <g>
    <g transform="translate(121.333333, 96)">
      <g transform="rotate(65)">
        <line x1="0" y1="-96" x2="0" y2="12"/>
      </g>
    </g>
  </g>
  <g>
    <g transform="translate(123.200000, 96)">
      <g transform="rotate(66)">
        <line x1="0" y1="-96" x2="0" y2="12"/>
      </g>
    </g>
  </g>
  <g>
    <g transform="translate(125.066667, 96)">
      <g transform="rotate(67)">
        <line x1="0" y1="-96" x2="0" y2="12"/>
      </g>
    </g>
  </g>
  <g>
    <g transform="translate(126.933333, 96)">
      <g transform="rotate(68)">
        <line x1="0" y1="-96" x2="0" y2="12"/>
      </g>
    </g>
  </g>
  <g>
    <g transform="translate(128.800000, 96)">
      <g transform="rotate(69)">
        <line x1="0" y1="-96" x2="0" y2="12"/>
      </g>
    </g>
  </g>
  <g>
    <g transform="translate(130.666667, 96)">
      <g transform="rotate(70)">
        <line x1="0" y1="-96" x2="0" y2="12"/>
      </g>
    </g>
  </g>
  <g>
    <g transform="translate(132.533333, 96)">
      <g transform="rotate(71)">
        <line x1="0" y1="-96" x2="0" y2="12"/>
      </g>
    </g>
  </g>
  <g>
    <g transform="translate(134.400000, 96)">
      <g transform="rotate(72)">
        <line x1="0" y1="-96" x2="0" y2="12"/>
      </g>
    </g>
  </g>
  <g>
    <g transform="translate(136.266667, 96)">
      <g transform="rotate(73)">
        <line x1="0" y1="-96" x2="0" y2="12"/>
      </g>
    </g>
  </g>
  <g>
    <g transform="translate(138.133333, 96)">
      <g transform="rotate(74)">
        <line x1="0" y1="-96" x2="0" y2="12"/>
      </g>
    </g>
  </g>
  <g>
    <g transform="translate(140, 96)">
      <g transform="rotate(75)">
        <line x1="0" y1="-96" x2="0" y2="12"/>
      </g>
    </g>
  </g>
  <g>
    <g transform="translate(141.866667, 96)">
      <g transform="rotate(76)">
        <line x1="0" y1="-96" x2="0" y2="12"/>
      </g>
    </g>
  </g>
  <g>
    <g transform="translate(143.733333, 96)">
      <g transform="rotate(77)">
        <line x1="0" y1="-96" x2="0" y2="12"/>
      </g>
    </g>
  </g>
  <g>
    <g transform="translate(145.600000, 96)">
      <g transform="rotate(78)">
        <line x1="0" y1="-96" x2="0" y2="12"/>
      </g>
    </g>
  </g>
  <g>
    <g transform="translate(147.466667, 96)">
      <g transform="rotate(79)">
        <line x1="0" y1="-96" x2="0" y2="12"/>
      </g>
    </g>
  </g>
  <g>
    <g transform="translate(149.333333, 96)">
      <g transform="rotate(80)">
        <line x1="0" y1="-96" x2="0" y2="12"/>
      </g>
    </g>
  </g>
  <g>
    <g transform="translate(151.200000, 96)">
      <g transform="rotate(81)">
        <line x1="0" y1="-96" x2="0" y2="12"/>
      </g>
    </g>
  </g>
  <g>
    <g transform="translate(153.066667, 96)">
      <g transform="rotate(82)">
        <line x1="0" y1="-96" x2="0" y2="12"/>
      </g>
    </g>
  </g>
  <g>
    <g transform="translate(154.933333, 96)">
      <g transform="rotate(83)">
        <line x1="0" y1="-96" x2="0" y2="12"/>
      </g>
    </g>
  </g>
  <g>
    <g transform="translate(156.800000, 96)">
      <g transform="rotate(84)">
        <line x1="0" y1="-96" x2="0" y2="12"/>
      </g>
    </g>
  </g>
  <g>
    <g transform="translate(158.666667, 96)">
      <g transform="rotate(85)">
        <line x1="0" y1="-96" x2="0" y2="12"/>
      </g>
    </g>
  </g>
  <g>
    <g transform="translate(160.533333, 96)">
      <g transform="rotate(86)">
        <line x1="0" y1="-96" x2="0" y2="12"/>
      </g>
    </g>
  </g>
  <g>
    <g transform="translate(162.400000, 96)">
      <g transform="rotate(87)">
        <line x1="0" y1="-96" x2="0" y2="12"/>
      </g>
    </g>
  </g>
  <g>
    <g transform="translate(164.266667, 96)">
      <g transform="rotate(88)">
        <line x1="0" y1="-96" x2="0" y2="12"/>
      </g>
    </g>
  </g>
  <g>
    <g transform="translate(166.133333, 96)">
      <g transform="rotate(89)">
        <line x1="0" y1="-96" x2="0" y2="12"/>
      </g>
    </g>
  </g>
  <g>
    <g transform="translate(168, 96)">
      <g transform="rotate(90)">
        <line x1="0" y1="-96" x2="0" y2="12"/>
      </g>
    </g>
  </g>
  <g>
    <g transform="translate(169.866667, 96)">
      <g transform="rotate(91)">
        <line x1="0" y1="-96" x2="0" y2="12"/>
      </g>
    </g>
  </g>
  <g>
    <g transform="translate(171.733333, 96)">
      <g transform="rotate(92)">
        <line x1="0" y1="-96" x2="0" y2="12"/>
      </g>
    </g>
  </g>
  <g>
    <g transform="translate(173.600000, 96)">
      <g transform="rotate(93.000000)">
        <line x1="0" y1="-96" x2="0" y2="12"/>
      </g>
    </g>
  </g>
  <g>
    <g transform="translate(175.466667, 96)">
      <g transform="rotate(94)">
        <line x1="0" y1="-96" x2="0" y2="12"/>
      </g>
    </g>
  </g>
  <g>
    <g transform="translate(177.333333, 96)">
      <g transform="rotate(95)">
        <line x1="0" y1="-96" x2="0" y2="12"/>
      </g>
    </g>
  </g>
  <g>
    <g transform="translate(179.200000, 96)">
      <g transform="rotate(96)">
        <line x1="0" y1="-96" x2="0" y2="12"/>
      </g>
    </g>
  </g>
  <g>
    <g transform="translate(181.066667, 96)">
      <g transform="rotate(97)">
        <line x1="0" y1="-96" x2="0" y2="12"/>
      </g>
    </g>
  </g>
  <g>
    <g transform="translate(182.933333, 96)">
      <g transform="rotate(98.000000)">
        <line x1="0" y1="-96" x2="0" y2="12"/>
      </g>
    </g>
  </g>
  <g>
    <g transform="translate(184.800000, 96)">
      <g transform="rotate(99.000000)">
        <line x1="0" y1="-96" x2="0" y2="12"/>
      </g>
    </g>
  </g>
  <g>
    <g transform="translate(186.666667, 96)">
      <g transform="rotate(100)">
        <line x1="0" y1="-96" x2="0" y2="12"/>
      </g>
    </g>
  </g>
  <g>
    <g transform="translate(188.533333, 96)">
      <g transform="rotate(101)">
        <line x1="0" y1="-96" x2="0" y2="12"/>
      </g>
    </g>
  </g>
  <g>
    <g transform="translate(190.400000, 96)">
      <g transform="rotate(102)">
        <line x1="0" y1="-96" x2="0" y2="12"/>
      </g>
    </g>
  </g>
  <g>
    <g transform="translate(192.266667, 96)">
      <g transform="rotate(103)">
        <line x1="0" y1="-96" x2="0" y2="12"/>
      </g>
    </g>
  </g>
  <g>
    <g transform="translate(194.133333, 96)">
      <g transform="rotate(104.000000)">
        <line x1="0" y1="-96" x2="0" y2="12"/>
      </g>
    </g>
  </g>
  <g>
    <g transform="translate(196, 96)">
      <g transform="rotate(105)">
        <line x1="0" y1="-96" x2="0" y2="12"/>
      </g>
    </g>
  </g>
  <g>
    <g transform="translate(197.866667, 96)">
      <g transform="rotate(106)">
        <line x1="0" y1="-96" x2="0" y2="12"/>
      </g>
    </g>
  </g>
  <g>
    <g transform="translate(199.733333, 96)">
      <g transform="rotate(107)">
        <line x1="0" y1="-96" x2="0" y2="12"/>
      </g>
    </g>
  </g>
  <g>
    <g transform="translate(201.600000, 96)">
      <g transform="rotate(108)">
        <line x1="0" y1="-96" x2="0" y2="12"/>
      </g>
    </g>
  </g>
  <g>
    <g transform="translate(203.466667, 96)">
      <g transform="rotate(109.000000)">
        <line x1="0" y1="-96" x2="0" y2="12"/>
      </g>
    </g>
  </g>
  <g>
    <g transform="translate(205.333333, 96)">
      <g transform="rotate(110.000000)">
        <line x1="0" y1="-96" x2="0" y2="12"/>
      </g>
    </g>
  </g>
  <g>
    <g transform="translate(207.200000, 96)">
      <g transform="rotate(111)">
        <line x1="0" y1="-96" x2="0" y2="12"/>
      </g>
    </g>
  </g>
  <g>
    <g transform="translate(209.066667, 96)">
      <g transform="rotate(112)">
        <line x1="0" y1="-96" x2="0" y2="12"/>
      </g>
    </g>
  </g>
  <g>
    <g transform="translate(210.933333, 96)">
      <g transform="rotate(113)">
        <line x1="0" y1="-96" x2="0" y2="12"/>
      </g>
    </g>
  </g>
  <g>
    <g transform="translate(212.800000, 96)">
      <g transform="rotate(114)">
        <line x1="0" y1="-96" x2="0" y2="12"/>
      </g>
    </g>
  </g>
  <g>
    <g transform="translate(214.666667, 96)">
      <g transform="rotate(115.000000)">
        <line x1="0" y1="-96" x2="0" y2="12"/>
      </g>
    </g>
  </g>
  <g>
    <g transform="translate(216.533333, 96)">
      <g transform="rotate(116.000000)">
        <line x1="0" y1="-96" x2="0" y2="12"/>
      </g>
    </g>
  </g>
  <g>
    <g transform="translate(218.400000, 96)">
      <g transform="rotate(117)">
        <line x1="0" y1="-96" x2="0" y2="12"/>
      </g>
    </g>
  </g>
  <g>
    <g transform="translate(220.266667, 96)">
      <g transform="rotate(118)">
        <line x1="0" y1="-96" x2="0" y2="12"/>
      </g>
    </g>
  </g>
  <g>
    <g transform="translate(222.133333, 96)">
      <g transform="rotate(119)">
        <line x1="0" y1="-96" x2="0" y2="12"/>
      </g>
    </g>
  </g>
  <g>
    <g transform="translate(224, 96)">
      <g transform="rotate(120)">
        <line x1="0" y1="-96" x2="0" y2="12"/>
      </g>
    </g>
  </g>
  <g>
    <g transform="translate(225.866667, 96)">
      <g transform="rotate(121.000000)">
        <line x1="0" y1="-96" x2="0" y2="12"/>
      </g>
    </g>
  </g>
  <g>
    <g transform="translate(227.733333, 96)">
      <g transform="rotate(122)">
        <line x1="0" y1="-96" x2="0" y2="12"/>
      </g>
    </g>
  </g>
  <g>
    <g transform="translate(229.600000, 96)">
      <g transform="rotate(123)">
        <line x1="0" y1="-96" x2="0" y2="12"/>
      </g>
    </g>
  </g>
  <g>
    <g transform="translate(231.466667, 96)">
      <g transform="rotate(124)">
        <line x1="0" y1="-96" x2="0" y2="12"/>
      </g>
    </g>
  </g>
  <g>
    <g transform="translate(233.333333, 96)">
      <g transform="rotate(125)">
        <line x1="0" y1="-96" x2="0" y2="12"/>
      </g>
    </g>
  </g>
  <g>
    <g transform="translate(235.200000, 96)">
      <g transform="rotate(126.000000)">
        <line x1="0" y1="-96" x2="0" y2="12"/>
      </g>
    </g>
  </g>
  <g>
    <g transform="translate(237.066667, 96)">
      <g transform="rotate(127.000000)">
        <line x1="0" y1="-96" x2="0" y2="12"/>
      </g>
    </g>
  </g>
  <g>
    <g transform="translate(238.933333, 96)">
      <g transform="rotate(128)">
        <line x1="0" y1="-96" x2="0" y2="12"/>
      </g>
    </g>
  </g>
  <g>
    <g transform="translate(240.800000, 96)">
      <g transform="rotate(129)">
        <line x1="0" y1="-96" x2="0" y2="12"/>
      </g>
    </g>
  </g>
  <g>
    <g transform="translate(242.666667, 96)">
      <g transform="rotate(130)">
        <line x1="0" y1="-96" x2="0" y2="12"/>
      </g>
    </g>
  </g>
  <g>
    <g transform="translate(244.533333, 96)">
      <g transform="rotate(131)">
        <line x1="0" y1="-96" x2="0" y2="12"/>
      </g>
    </g>
  </g>
  <g>
    <g transform="translate(246.400000, 96)">
      <g transform="rotate(132)">
        <line x1="0" y1="-96" x2="0" y2="12"/>
      </g>
    </g>
  </g>
  <g>
    <g transform="translate(248.266667, 96)">
      <g transform="rotate(133)">
        <line x1="0" y1="-96" x2="0" y2="12"/>
      </g>
    </g>
  </g>
  <g>
    <g transform="translate(250.133333, 96)">
      <g transform="rotate(134)">
        <line x1="0" y1="-96" x2="0" y2="12"/>
      </g>
    </g>
  </g>
  <g>
    <g transform="translate(252, 96)">
      <g transform="rotate(135)">
        <line x1="0" y1="-96" x2="0" y2="12"/>
      </g>
    </g>
  </g>
  <g>
    <g transform="translate(253.866667, 96)">
      <g transform="rotate(136)">
        <line x1="0" y1="-96" x2="0" y2="12"/>
      </g>
    </g>
  </g>
  <g>
    <g transform="translate(255.733333, 96)">
      <g transform="rotate(137)">
        <line x1="0" y1="-96" x2="0" y2="12"/>
      </g>
    </g>
  </g>
  <g>
    <g transform="translate(257.600000, 96)">
      <g transform="rotate(138)">
        <line x1="0" y1="-96" x2="0" y2="12"/>
      </g>
    </g>
  </g>
  <g>
    <g transform="translate(259.466667, 96)">
      <g transform="rotate(139)">
        <line x1="0" y1="-96" x2="0" y2="12"/>
      </g>
    </g>
  </g>
  <g>
    <g transform="translate(261.333333, 96)">
      <g transform="rotate(140)">
        <line x1="0" y1="-96" x2="0" y2="12"/>
      </g>
    </g>
  </g>
  <g>
    <g transform="translate(263.200000, 96)">
      <g transform="rotate(141)">
        <line x1="0" y1="-96" x2="0" y2="12"/>
      </g>
    </g>
  </g>
  <g>
    <g transform="translate(265.066667, 96)">
      <g transform="rotate(142)">
        <line x1="0" y1="-96" x2="0" y2="12"/>
      </g>
    </g>
  </g>
  <g>
    <g transform="translate(266.933333, 96)">
      <g transform="rotate(143)">
        <line x1="0" y1="-96" x2="0" y2="12"/>
      </g>
    </g>
  </g>
  <g>
    <g transform="translate(268.800000, 96)">
      <g transform="rotate(144)">
        <line x1="0" y1="-96" x2="0" y2="12"/>
      </g>
    </g>
  </g>
  <g>
    <g transform="translate(270.666667, 96)">
      <g transform="rotate(145)">
        <line x1="0" y1="-96" x2="0" y2="12"/>
      </g>
    </g>
  </g>
  <g>
    <g transform="translate(272.533333, 96)">
      <g transform="rotate(146)">
        <line x1="0" y1="-96" x2="0" y2="12"/>
      </g>
    </g>
  </g>
  <g>
    <g transform="translate(274.400000, 96)">
      <g transform="rotate(147)">
        <line x1="0" y1="-96" x2="0" y2="12"/>
      </g>
    </g>
  </g>
  <g>
    <g transform="translate(276.266667, 96)">
      <g transform="rotate(148)">
        <line x1="0" y1="-96" x2="0" y2="12"/>
      </g>
    </g>
  </g>
  <g>
    <g transform="translate(278.133333, 96)">
      <g transform="rotate(149)">
        <line x1="0" y1="-96" x2="0" y2="12"/>
      </g>
    </g>
  </g>
  <g>
    <g transform="translate(280, 96)">
      <g transform="rotate(150)">
        <line x1="0" y1="-96" x2="0" y2="12"/>
      </g>
    </g>
  </g>
  <g>
    <g transform="translate(281.866667, 96)">
      <g transform="rotate(151)">
        <line x1="0" y1="-96" x2="0" y2="12"/>
      </g>
    </g>
  </g>
  <g>
    <g transform="translate(283.733333, 96)">
      <g transform="rotate(152)">
        <line x1="0" y1="-96" x2="0" y2="12"/>
      </g>
    </g>
  </g>
  <g>
    <g transform="translate(285.600000, 96)">
      <g transform="rotate(153)">
        <line x1="0" y1="-96" x2="0" y2="12"/>
      </g>
    </g>
  </g>
  <g>
    <g transform="translate(287.466667, 96)">
      <g transform="rotate(154)">
        <line x1="0" y1="-96" x2="0" y2="12"/>
      </g>
    </g>
  </g>
  <g>
    <g transform="translate(289.333333, 96)">
      <g transform="rotate(155)">
        <line x1="0" y1="-96" x2="0" y2="12"/>
      </g>
    </g>
  </g>
  <g>
    <g transform="translate(291.200000, 96)">
      <g transform="rotate(156)">
        <line x1="0" y1="-96" x2="0" y2="12"/>
      </g>
    </g>
  </g>
  <g>
    <g transform="translate(293.066667, 96)">
      <g transform="rotate(157)">
        <line x1="0" y1="-96" x2="0" y2="12"/>
      </g>
    </g>
  </g>
  <g>
    <g transform="translate(294.933333, 96)">
      <g transform="rotate(158)">
        <line x1="0" y1="-96" x2="0" y2="12"/>
      </g>
    </g>
  </g>
  <g>
    <g transform="translate(296.800000, 96)">
      <g transform="rotate(159)">
        <line x1="0" y1="-96" x2="0" y2="12"/>
      </g>
    </g>
  </g>
  <g>
    <g transform="translate(298.666667, 96)">
      <g transform="rotate(160)">
        <line x1="0" y1="-96" x2="0" y2="12"/>
      </g>
    </g>
  </g>
  <g>
    <g transform="translate(300.533333, 96)">
      <g transform="rotate(161)">
        <line x1="0" y1="-96" x2="0" y2="12"/>
      </g>
    </g>
  </g>
  <g>
    <g transform="translate(302.400000, 96)">
      <g transform="rotate(162)">
        <line x1="0" y1="-96" x2="0" y2="12"/>
      </g>
    </g>
  </g>
  <g>
    <g transform="translate(304.266667, 96)">
      <g transform="rotate(163)">
        <line x1="0" y1="-96" x2="0" y2="12"/>
      </g>
    </g>
  </g>
  <g>
    <g transform="translate(306.133333, 96)">
      <g transform="rotate(164)">
        <line x1="0" y1="-96" x2="0" y2="12"/>
      </g>
    </g>
  </g>
  <g>
    <g transform="translate(308, 96)">
      <g transform="rotate(165)">
        <line x1="0" y1="-96" x2="0" y2="12"/>
      </g>
    </g>
  </g>
  <g>
    <g transform="translate(309.866667, 96)">
      <g transform="rotate(166)">
        <line x1="0" y1="-96" x2="0" y2="12"/>
      </g>
    </g>
  </g>
  <g>
    <g transform="translate(311.733333, 96)">
      <g transform="rotate(167)">
        <line x1="0" y1="-96" x2="0" y2="12"/>
      </g>
    </g>
  </g>
  <g>
    <g transform="translate(313.600000, 96)">
      <g transform="rotate(168)">
        <line x1="0" y1="-96" x2="0" y2="12"/>
      </g>
    </g>
  </g>
  <g>
    <g transform="translate(315.466667, 96)">
      <g transform="rotate(169)">
        <line x1="0" y1="-96" x2="0" y2="12"/>
      </g>
    </g>
  </g>
  <g>
    <g transform="translate(317.333333, 96)">
      <g transform="rotate(170)">
        <line x1="0" y1="-96" x2="0" y2="12"/>
      </g>
    </g>
  </g>
  <g>
    <g transform="translate(319.200000, 96)">
      <g transform="rotate(171)">
        <line x1="0" y1="-96" x2="0" y2="12"/>
      </g>
    </g>
  </g>
  <g>
    <g transform="translate(321.066667, 96)">
      <g transform="rotate(172)">
        <line x1="0" y1="-96" x2="0" y2="12"/>
      </g>
    </g>
  </g>
  <g>
    <g transform="translate(322.933333, 96)">
      <g transform="rotate(173)">
        <line x1="0" y1="-96" x2="0" y2="12"/>
      </g>
    </g>
  </g>
  <g>
    <g transform="translate(324.800000, 96)">
      <g transform="rotate(174)">
        <line x1="0" y1="-96" x2="0" y2="12"/>
      </g>
    </g>
  </g>
  <g>
    <g transform="translate(326.666667, 96)">
      <g transform="rotate(175)">
        <line x1="0" y1="-96" x2="0" y2="12"/>
      </g>
    </g>
  </g>
  <g>
    <g transform="translate(328.533333, 96)">
      <g transform="rotate(176)">
        <line x1="0" y1="-96" x2="0" y2="12"/>
      </g>
    </g>
  </g>
  <g>
    <g transform="translate(330.400000, 96)">
      <g transform="rotate(177)">
        <line x1="0" y1="-96" x2="0" y2="12"/>
      </g>
    </g>
  </g>
  <g>
    <g transform="translate(332.266667, 96)">
      <g transform="rotate(178)">
        <line x1="0" y1="-96" x2="0" y2="12"/>
      </g>
    </g>
  </g>
  <g>
    <g transform="translate(334.133333, 96)">
      <g transform="rotate(179)">
        <line x1="0" y1="-96" x2="0" y2="12"/>
      </g>
    </g>
  </g>
</g>
</svg>