<!-- businesscard_v2.svg -->
<!-- Generated using p5.plotSvg: -->
<!-- A Plotter-Oriented SVG Exporter for p5.js -->
<!-- Fri Jan 31 2025 15:41:33 GMT-0600 (Central Standard Time) -->
<!-- DPI: 96 -->
<svg xmlns="http://www.w3.org/2000/svg" width="3.5in" height="2in" viewBox="0 0 336 192">
  <style>
      circle, ellipse, line, path, polygon, polyline, rect, quad, text {
        fill: none;
        stroke: black;
        stroke-width: 1;
        stroke-linecap: round;
        stroke-linejoin: round;
        vector-effect: non-scaling-stroke;
      }
    </style>
<g vector-effect="non-scaling-stroke">
  <g>
    <g transform="translate(27.600000, 96)">
      <g transform="rotate(12)">
        <line x1="0" y1="-48.8377" x2="0" y2="48.8377"/>
      </g>
    </g>
  </g>
  <g>
    <g transform="translate(30.360000, 96)">
      <g transform="rotate(13.200000)">
        <line x1="0" y1="-48.9215" x2="0" y2="48.9215"/>
      </g>
    </g>
  </g>
  <g>
    <g transform="translate(33.120000, 96)">
      <g transform="rotate(14.400000)">
        <line x1="0" y1="-49.0052" x2="0" y2="49.0052"/>
      </g>
    </g>
  </g>
  <g>
    <g transform="translate(35.880000, 96)">
      <g transform="rotate(15.600000)">
        <line x1="0" y1="-49.0890" x2="0" y2="49.0890"/>
      </g>
    </g>
  </g>
  <g>
    <g transform="translate(38.640000, 96)">
      <g transform="rotate(16.800000)">
        <line x1="0" y1="-49.1727" x2="0" y2="49.1727"/>
      </g>
    </g>
  </g>
  <g>
    <g transform="translate(41.400000, 96)">
      <g transform="rotate(18)">
        <line x1="0" y1="-49.2565" x2="0" y2="49.2565"/>
      </g>
    </g>
  </g>
  <g>
    <g transform="translate(44.160000, 96)">
      <g transform="rotate(19.200000)">
        <line x1="0" y1="-49.3402" x2="0" y2="49.3402"/>
      </g>
    </g>
  </g>
  <g>
    <g transform="translate(46.920000, 96)">
      <g transform="rotate(20.400000)">
        <line x1="0" y1="-49.4240" x2="0" y2="49.4240"/>
      </g>
    </g>
  </g>
  <g>
    <g transform="translate(49.680000, 96)">
      <g transform="rotate(21.600000)">
        <line x1="0" y1="-49.5077" x2="0" y2="49.5077"/>
      </g>
    </g>
  </g>
  <g>
    <g transform="translate(52.440000, 96)">
      <g transform="rotate(22.800000)">
        <line x1="0" y1="-49.5914" x2="0" y2="49.5914"/>
      </g>
    </g>
  </g>
  <g>
    <g transform="translate(55.200000, 96)">
      <g transform="rotate(24)">
        <line x1="0" y1="-49.6752" x2="0" y2="49.6752"/>
      </g>
    </g>
  </g>
  <g>
    <g transform="translate(57.960000, 96)">
      <g transform="rotate(25.200000)">
        <line x1="0" y1="-49.7589" x2="0" y2="49.7589"/>
      </g>
    </g>
  </g>
  <g>
    <g transform="translate(60.720000, 96)">
      <g transform="rotate(26.400000)">
        <line x1="0" y1="-49.8426" x2="0" y2="49.8426"/>
      </g>
    </g>
  </g>
  <g>
    <g transform="translate(63.480000, 96)">
      <g transform="rotate(27.600000)">
        <line x1="0" y1="-49.9263" x2="0" y2="49.9263"/>
      </g>
    </g>
  </g>
  <g>
    <g transform="translate(66.240000, 96)">
      <g transform="rotate(28.800000)">
        <line x1="0" y1="-50.0100" x2="0" y2="50.0100"/>
      </g>
    </g>
  </g>
  <g>
    <g transform="translate(69, 96)">
      <g transform="rotate(30)">
        <line x1="0" y1="-50.0937" x2="0" y2="50.0937"/>
      </g>
    </g>
  </g>
  <g>
    <g transform="translate(71.760000, 96)">
      <g transform="rotate(31.200000)">
        <line x1="0" y1="-50.1774" x2="0" y2="50.1774"/>
      </g>
    </g>
  </g>
  <g>
    <g transform="translate(74.520000, 96)">
      <g transform="rotate(32.400000)">
        <line x1="0" y1="-50.2611" x2="0" y2="50.2611"/>
      </g>
    </g>
  </g>
  <g>
    <g transform="translate(77.280000, 96)">
      <g transform="rotate(33.600000)">
        <line x1="0" y1="-50.3448" x2="0" y2="50.3448"/>
      </g>
    </g>
  </g>
  <g>
    <g transform="translate(80.040000, 96)">
      <g transform="rotate(34.800000)">
        <line x1="0" y1="-50.4285" x2="0" y2="50.4285"/>
      </g>
    </g>
  </g>
  <g>
    <g transform="translate(82.800000, 96)">
      <g transform="rotate(36)">
        <line x1="0" y1="-50.5121" x2="0" y2="50.5121"/>
      </g>
    </g>
  </g>
  <g>
    <g transform="translate(85.560000, 96)">
      <g transform="rotate(37.200000)">
        <line x1="0" y1="-50.5958" x2="0" y2="50.5958"/>
      </g>
    </g>
  </g>
  <g>
    <g transform="translate(88.320000, 96)">
      <g transform="rotate(38.400000)">
        <line x1="0" y1="-50.6794" x2="0" y2="50.6794"/>
      </g>
    </g>
  </g>
  <g>
    <g transform="translate(91.080000, 96)">
      <g transform="rotate(39.600000)">
        <line x1="0" y1="-50.7631" x2="0" y2="50.7631"/>
      </g>
    </g>
  </g>
  <g>
    <g transform="translate(93.840000, 96)">
      <g transform="rotate(40.800000)">
        <line x1="0" y1="-50.8467" x2="0" y2="50.8467"/>
      </g>
    </g>
  </g>
  <g>
    <g transform="translate(96.600000, 96)">
      <g transform="rotate(42)">
        <line x1="0" y1="-50.9303" x2="0" y2="50.9303"/>
      </g>
    </g>
  </g>
  <g>
    <g transform="translate(99.360000, 96)">
      <g transform="rotate(43.200000)">
        <line x1="0" y1="-51.0139" x2="0" y2="51.0139"/>
      </g>
    </g>
  </g>
  <g>
    <g transform="translate(102.120000, 96)">
      <g transform="rotate(44.400000)">
        <line x1="0" y1="-51.0976" x2="0" y2="51.0976"/>
      </g>
    </g>
  </g>
  <g>
    <g transform="translate(104.880000, 96)">
      <g transform="rotate(45.600000)">
        <line x1="0" y1="-51.1811" x2="0" y2="51.1811"/>
      </g>
    </g>
  </g>
  <g>
    <g transform="translate(107.640000, 96)">
      <g transform="rotate(46.800000)">
        <line x1="0" y1="-51.2647" x2="0" y2="51.2647"/>
      </g>
    </g>
  </g>
  <g>
    <g transform="translate(110.400000, 96)">
      <g transform="rotate(48)">
        <line x1="0" y1="-51.3483" x2="0" y2="51.3483"/>
      </g>
    </g>
  </g>
  <g>
    <g transform="translate(113.160000, 96)">
      <g transform="rotate(49.200000)">
        <line x1="0" y1="-51.4319" x2="0" y2="51.4319"/>
      </g>
    </g>
  </g>
  <g>
    <g transform="translate(115.920000, 96)">
      <g transform="rotate(50.400000)">
        <line x1="0" y1="-51.5154" x2="0" y2="51.5154"/>
      </g>
    </g>
  </g>
  <g>
    <g transform="translate(118.680000, 96)">
      <g transform="rotate(51.600000)">
        <line x1="0" y1="-51.5990" x2="0" y2="51.5990"/>
      </g>
    </g>
  </g>
  <g>
    <g transform="translate(121.440000, 96)">
      <g transform="rotate(52.800000)">
        <line x1="0" y1="-51.6825" x2="0" y2="51.6825"/>
      </g>
    </g>
  </g>
  <g>
    <g transform="translate(124.200000, 96)">
      <g transform="rotate(54)">
        <line x1="0" y1="-51.7660" x2="0" y2="51.7660"/>
      </g>
    </g>
  </g>
  <g>
    <g transform="translate(126.960000, 96)">
      <g transform="rotate(55.200000)">
        <line x1="0" y1="-51.8495" x2="0" y2="51.8495"/>
      </g>
    </g>
  </g>
  <g>
    <g transform="translate(129.720000, 96)">
      <g transform="rotate(56.400000)">
        <line x1="0" y1="-51.9330" x2="0" y2="51.9330"/>
      </g>
    </g>
  </g>
  <g>
    <g transform="translate(132.480000, 96)">
      <g transform="rotate(57.600000)">
        <line x1="0" y1="-52.0165" x2="0" y2="52.0165"/>
      </g>
    </g>
  </g>
  <g>
    <g transform="translate(135.240000, 96)">
      <g transform="rotate(58.800000)">
        <line x1="0" y1="-52.1000" x2="0" y2="52.1000"/>
      </g>
    </g>
  </g>
  <g>
    <g transform="translate(138, 96)">
      <g transform="rotate(60)">
        <line x1="0" y1="-52.1835" x2="0" y2="52.1835"/>
      </g>
    </g>
  </g>
  <g>
    <g transform="translate(140.760000, 96)">
      <g transform="rotate(61.200000)">
        <line x1="0" y1="-52.2669" x2="0" y2="52.2669"/>
      </g>
    </g>
  </g>
  <g>
    <g transform="translate(143.520000, 96)">
      <g transform="rotate(62.400000)">
        <line x1="0" y1="-52.3504" x2="0" y2="52.3504"/>
      </g>
    </g>
  </g>
  <g>
    <g transform="translate(146.280000, 96)">
      <g transform="rotate(63.600000)">
        <line x1="0" y1="-52.4338" x2="0" y2="52.4338"/>
      </g>
    </g>
  </g>
  <g>
    <g transform="translate(149.040000, 96)">
      <g transform="rotate(64.800000)">
        <line x1="0" y1="-52.5172" x2="0" y2="52.5172"/>
      </g>
    </g>
  </g>
  <g>
    <g transform="translate(151.800000, 96)">
      <g transform="rotate(66)">
        <line x1="0" y1="-52.6006" x2="0" y2="52.6006"/>
      </g>
    </g>
  </g>
  <g>
    <g transform="translate(154.560000, 96)">
      <g transform="rotate(67.200000)">
        <line x1="0" y1="-52.6840" x2="0" y2="52.6840"/>
      </g>
    </g>
  </g>
  <g>
    <g transform="translate(157.320000, 96)">
      <g transform="rotate(68.400000)">
        <line x1="0" y1="-52.7673" x2="0" y2="52.7673"/>
      </g>
    </g>
  </g>
  <g>
    <g transform="translate(160.080000, 96)">
      <g transform="rotate(69.600000)">
        <line x1="0" y1="-52.8507" x2="0" y2="52.8507"/>
      </g>
    </g>
  </g>
  <g>
    <g transform="translate(162.840000, 96)">
      <g transform="rotate(70.800000)">
        <line x1="0" y1="-52.9340" x2="0" y2="52.9340"/>
      </g>
    </g>
  </g>
  <g>
    <g transform="translate(165.600000, 96)">
      <g transform="rotate(72)">
        <line x1="0" y1="-53.0174" x2="0" y2="53.0174"/>
      </g>
    </g>
  </g>
  <g>
    <g transform="translate(168.360000, 96)">
      <g transform="rotate(73.200000)">
        <line x1="0" y1="-53.1007" x2="0" y2="53.1007"/>
      </g>
    </g>
  </g>
  <g>
    <g transform="translate(171.120000, 96)">
      <g transform="rotate(74.400000)">
        <line x1="0" y1="-53.1840" x2="0" y2="53.1840"/>
      </g>
    </g>
  </g>
  <g>
    <g transform="translate(173.880000, 96)">
      <g transform="rotate(75.600000)">
        <line x1="0" y1="-53.2672" x2="0" y2="53.2672"/>
      </g>
    </g>
  </g>
  <g>
    <g transform="translate(176.640000, 96)">
      <g transform="rotate(76.800000)">
        <line x1="0" y1="-53.3505" x2="0" y2="53.3505"/>
      </g>
    </g>
  </g>
  <g>
    <g transform="translate(179.400000, 96)">
      <g transform="rotate(78)">
        <line x1="0" y1="-53.4338" x2="0" y2="53.4338"/>
      </g>
    </g>
  </g>
  <g>
    <g transform="translate(182.160000, 96)">
      <g transform="rotate(79.200000)">
        <line x1="0" y1="-53.5170" x2="0" y2="53.5170"/>
      </g>
    </g>
  </g>
  <g>
    <g transform="translate(184.920000, 96)">
      <g transform="rotate(80.400000)">
        <line x1="0" y1="-53.6002" x2="0" y2="53.6002"/>
      </g>
    </g>
  </g>
  <g>
    <g transform="translate(187.680000, 96)">
      <g transform="rotate(81.600000)">
        <line x1="0" y1="-53.6834" x2="0" y2="53.6834"/>
      </g>
    </g>
  </g>
  <g>
    <g transform="translate(190.440000, 96)">
      <g transform="rotate(82.800000)">
        <line x1="0" y1="-53.7666" x2="0" y2="53.7666"/>
      </g>
    </g>
  </g>
  <g>
    <g transform="translate(193.200000, 96)">
      <g transform="rotate(84)">
        <line x1="0" y1="-53.8497" x2="0" y2="53.8497"/>
      </g>
    </g>
  </g>
  <g>
    <g transform="translate(195.960000, 96)">
      <g transform="rotate(85.200000)">
        <line x1="0" y1="-53.9329" x2="0" y2="53.9329"/>
      </g>
    </g>
  </g>
  <g>
    <g transform="translate(198.720000, 96)">
      <g transform="rotate(86.400000)">
        <line x1="0" y1="-54.0160" x2="0" y2="54.0160"/>
      </g>
    </g>
  </g>
  <g>
    <g transform="translate(201.480000, 96)">
      <g transform="rotate(87.600000)">
        <line x1="0" y1="-54.0991" x2="0" y2="54.0991"/>
      </g>
    </g>
  </g>
  <g>
    <g transform="translate(204.240000, 96)">
      <g transform="rotate(88.800000)">
        <line x1="0" y1="-54.1822" x2="0" y2="54.1822"/>
      </g>
    </g>
  </g>
  <g>
    <g transform="translate(207, 96)">
      <g transform="rotate(90)">
        <line x1="0" y1="-54.2653" x2="0" y2="54.2653"/>
      </g>
    </g>
  </g>
  <g>
    <g transform="translate(209.760000, 96)">
      <g transform="rotate(91.200000)">
        <line x1="0" y1="-54.3483" x2="0" y2="54.3483"/>
      </g>
    </g>
  </g>
  <g>
    <g transform="translate(212.520000, 96)">
      <g transform="rotate(92.400000)">
        <line x1="0" y1="-54.4313" x2="0" y2="54.4313"/>
      </g>
    </g>
  </g>
  <g>
    <g transform="translate(215.280000, 96)">
      <g transform="rotate(93.600000)">
        <line x1="0" y1="-54.5143" x2="0" y2="54.5143"/>
      </g>
    </g>
  </g>
  <g>
    <g transform="translate(218.040000, 96)">
      <g transform="rotate(94.800000)">
        <line x1="0" y1="-54.5973" x2="0" y2="54.5973"/>
      </g>
    </g>
  </g>
  <g>
    <g transform="translate(220.800000, 96)">
      <g transform="rotate(96)">
        <line x1="0" y1="-54.6803" x2="0" y2="54.6803"/>
      </g>
    </g>
  </g>
  <g>
    <g transform="translate(223.560000, 96)">
      <g transform="rotate(97.200000)">
        <line x1="0" y1="-54.7633" x2="0" y2="54.7633"/>
      </g>
    </g>
  </g>
  <g>
    <g transform="translate(226.320000, 96)">
      <g transform="rotate(98.400000)">
        <line x1="0" y1="-54.8462" x2="0" y2="54.8462"/>
      </g>
    </g>
  </g>
  <g>
    <g transform="translate(229.080000, 96)">
      <g transform="rotate(99.600000)">
        <line x1="0" y1="-54.9291" x2="0" y2="54.9291"/>
      </g>
    </g>
  </g>
  <g>
    <g transform="translate(231.840000, 96)">
      <g transform="rotate(100.800000)">
        <line x1="0" y1="-55.0120" x2="0" y2="55.0120"/>
      </g>
    </g>
  </g>
  <g>
    <g transform="translate(234.600000, 96)">
      <g transform="rotate(102)">
        <line x1="0" y1="-55.0949" x2="0" y2="55.0949"/>
      </g>
    </g>
  </g>
  <g>
    <g transform="translate(237.360000, 96)">
      <g transform="rotate(103.200000)">
        <line x1="0" y1="-55.1777" x2="0" y2="55.1777"/>
      </g>
    </g>
  </g>
  <g>
    <g transform="translate(240.120000, 96)">
      <g transform="rotate(104.400000)">
        <line x1="0" y1="-55.2605" x2="0" y2="55.2605"/>
      </g>
    </g>
  </g>
  <g>
    <g transform="translate(242.880000, 96)">
      <g transform="rotate(105.600000)">
        <line x1="0" y1="-55.3433" x2="0" y2="55.3433"/>
      </g>
    </g>
  </g>
  <g>
    <g transform="translate(245.640000, 96)">
      <g transform="rotate(106.800000)">
        <line x1="0" y1="-55.4261" x2="0" y2="55.4261"/>
      </g>
    </g>
  </g>
  <g>
    <g transform="translate(248.400000, 96)">
      <g transform="rotate(108)">
        <line x1="0" y1="-55.5089" x2="0" y2="55.5089"/>
      </g>
    </g>
  </g>
  <g>
    <g transform="translate(251.160000, 96)">
      <g transform="rotate(109.200000)">
        <line x1="0" y1="-55.5916" x2="0" y2="55.5916"/>
      </g>
    </g>
  </g>
  <g>
    <g transform="translate(253.920000, 96)">
      <g transform="rotate(110.400000)">
        <line x1="0" y1="-55.6743" x2="0" y2="55.6743"/>
      </g>
    </g>
  </g>
  <g>
    <g transform="translate(256.680000, 96)">
      <g transform="rotate(111.600000)">
        <line x1="0" y1="-55.7570" x2="0" y2="55.7570"/>
      </g>
    </g>
  </g>
  <g>
    <g transform="translate(259.440000, 96)">
      <g transform="rotate(112.800000)">
        <line x1="0" y1="-55.8396" x2="0" y2="55.8396"/>
      </g>
    </g>
  </g>
  <g>
    <g transform="translate(262.200000, 96)">
      <g transform="rotate(114)">
        <line x1="0" y1="-55.9223" x2="0" y2="55.9223"/>
      </g>
    </g>
  </g>
  <g>
    <g transform="translate(264.960000, 96)">
      <g transform="rotate(115.200000)">
        <line x1="0" y1="-56.0049" x2="0" y2="56.0049"/>
      </g>
    </g>
  </g>
  <g>
    <g transform="translate(267.720000, 96)">
      <g transform="rotate(116.400000)">
        <line x1="0" y1="-56.0875" x2="0" y2="56.0875"/>
      </g>
    </g>
  </g>
  <g>
    <g transform="translate(270.480000, 96)">
      <g transform="rotate(117.600000)">
        <line x1="0" y1="-56.1701" x2="0" y2="56.1701"/>
      </g>
    </g>
  </g>
  <g>
    <g transform="translate(273.240000, 96)">
      <g transform="rotate(118.800000)">
        <line x1="0" y1="-56.2526" x2="0" y2="56.2526"/>
      </g>
    </g>
  </g>
</g>
</svg>