<!-- doog_skele.svg -->
<!-- Generated using p5.plotSvg: -->
<!-- A Plotter-Oriented SVG Exporter for p5.js -->
<!-- Fri Jan 31 2025 18:04:04 GMT-0600 (Central Standard Time) -->
<!-- DPI: 96 -->
<svg xmlns="http://www.w3.org/2000/svg" width="3.5in" height="2in" viewBox="0 0 336 192">
  <style>
      circle, ellipse, line, path, polygon, polyline, rect, quad, text {
        fill: none;
        stroke: black;
        stroke-width: 1;
        stroke-linecap: round;
        stroke-linejoin: round;
        vector-effect: non-scaling-stroke;
      }
    </style>
<g vector-effect="non-scaling-stroke">
  <g>
    <g transform="translate(0, -100)">
      <g transform="scale(0.250000, 0.250000)">
        <g id="LINES_0" style="stroke:#ff0000;">
          <line x1="412.8695" y1="639.3754" x2="410.3953" y2="609.0474"/>
        </g>
        <g id="LINES_1" style="stroke:#ff0000;">
          <line x1="412.8695" y1="639.3754" x2="334.8931" y2="607.5498"/>
        </g>
        <g id="LINES_2" style="stroke:#ff0000;">
          <line x1="410.3953" y1="609.0474" x2="375.0795" y2="661.7776"/>
        </g>
        <g id="LINES_3" style="stroke:#ff0000;">
          <line x1="334.8931" y1="607.5498" x2="423.6284" y2="635.7149"/>
        </g>
        <g id="LINES_4" style="stroke:#ff0000;">
          <line x1="440.7987" y1="686.5244" x2="386.3567" y2="747.7413"/>
        </g>
        <g id="LINES_5" style="stroke:#ff0000;">
          <line x1="440.7987" y1="686.5244" x2="466.4300" y2="735.5425"/>
        </g>
        <g id="LINES_6" style="stroke:#ff0000;">
          <line x1="440.7987" y1="686.5244" x2="430.4929" y2="821.8618"/>
        </g>
        <g id="LINES_7" style="stroke:#ff0000;">
          <line x1="386.3567" y1="747.7413" x2="347.2259" y2="801.2751"/>
        </g>
        <g id="LINES_8" style="stroke:#ff0000;">
          <line x1="386.3567" y1="747.7413" x2="356.1841" y2="879.4986"/>
        </g>
        <g id="LINES_9" style="stroke:#ff0000;">
          <line x1="466.4300" y1="735.5425" x2="441.4797" y2="811.4625"/>
        </g>
        <g id="LINES_10" style="stroke:#ff0000;">
          <line x1="347.2259" y1="801.2751" x2="309.7921" y2="823.2044"/>
        </g>
        <g id="LINES_11" style="stroke:#ff0000;">
          <line x1="430.4929" y1="821.8618" x2="356.1841" y2="879.4986"/>
        </g>
        <g id="LINES_12" style="stroke:#ff0000;">
          <line x1="430.4929" y1="821.8618" x2="382.9640" y2="960.1648"/>
        </g>
        <g id="LINES_13" style="stroke:#ff0000;">
          <line x1="356.1841" y1="879.4986" x2="338.0708" y2="946.1542"/>
        </g>
        <g id="LINES_14" style="stroke:#ff0000;">
          <line x1="382.9640" y1="960.1648" x2="395.6786" y2="1145.8627"/>
        </g>
        <g id="LINES_15" style="stroke:#ff0000;">
          <line x1="338.0708" y1="946.1542" x2="302.3185" y2="1127.2492"/>
        </g>
        <circle cx="412.8695" cy="639.3754" r="3" style="stroke:#ff0000;"/>
        <circle cx="410.3953" cy="609.0474" r="3" style="stroke:#ff0000;"/>
        <circle cx="334.8931" cy="607.5498" r="3" style="stroke:#ff0000;"/>
        <circle cx="375.0795" cy="661.7776" r="3" style="stroke:#ff0000;"/>
        <circle cx="423.6284" cy="635.7149" r="3" style="stroke:#ff0000;"/>
        <circle cx="440.7987" cy="686.5244" r="3" style="stroke:#ff0000;"/>
        <circle cx="386.3567" cy="747.7413" r="3" style="stroke:#ff0000;"/>
        <circle cx="466.4300" cy="735.5425" r="3" style="stroke:#ff0000;"/>
        <circle cx="347.2259" cy="801.2751" r="3" style="stroke:#ff0000;"/>
        <circle cx="441.4797" cy="811.4625" r="3" style="stroke:#ff0000;"/>
        <circle cx="309.7921" cy="823.2044" r="3" style="stroke:#ff0000;"/>
        <circle cx="430.4929" cy="821.8618" r="3" style="stroke:#ff0000;"/>
        <circle cx="356.1841" cy="879.4986" r="3" style="stroke:#ff0000;"/>
        <circle cx="382.9640" cy="960.1648" r="3" style="stroke:#ff0000;"/>
        <circle cx="338.0708" cy="946.1542" r="3" style="stroke:#ff0000;"/>
        <circle cx="395.6786" cy="1145.8627" r="3" style="stroke:#ff0000;"/>
        <circle cx="302.3185" cy="1127.2492" r="3" style="stroke:#ff0000;"/>
      </g>
    </g>
  </g>
</g>
</svg>