<!-- doog_skele.svg -->
<!-- Generated using p5.plotSvg: -->
<!-- A Plotter-Oriented SVG Exporter for p5.js -->
<!-- Fri Jan 31 2025 18:07:25 GMT-0600 (Central Standard Time) -->
<!-- DPI: 96 -->
<svg xmlns="http://www.w3.org/2000/svg" width="3.5in" height="2in" viewBox="0 0 336 192">
  <style>
      circle, ellipse, line, path, polygon, polyline, rect, quad, text {
        fill: none;
        stroke: black;
        stroke-width: 1;
        stroke-linecap: round;
        stroke-linejoin: round;
        vector-effect: non-scaling-stroke;
      }
    </style>
<g vector-effect="non-scaling-stroke">
  <g>
    <g transform="translate(0, -100)">
      <g transform="scale(0.250000, 0.250000)">
        <g id="LINES_0" style="stroke:#ff0000;">
          <line x1="348.6887" y1="682.4863" x2="510.5040" y2="612.7620"/>
        </g>
        <g id="LINES_1" style="stroke:#ff0000;">
          <line x1="348.6887" y1="682.4863" x2="259.1384" y2="730.5579"/>
        </g>
        <g id="LINES_2" style="stroke:#ff0000;">
          <line x1="510.5040" y1="612.7620" x2="452.6615" y2="773.6951"/>
        </g>
        <g id="LINES_3" style="stroke:#ff0000;">
          <line x1="259.1384" y1="730.5579" x2="486.3534" y2="634.5728"/>
        </g>
        <g id="LINES_4" style="stroke:#ff0000;">
          <line x1="552.8221" y1="571.6798" x2="412.3171" y2="824.0586"/>
        </g>
        <g id="LINES_5" style="stroke:#ff0000;">
          <line x1="552.8221" y1="571.6798" x2="390.5579" y2="755.6325"/>
        </g>
        <g id="LINES_6" style="stroke:#ff0000;">
          <line x1="552.8221" y1="571.6798" x2="353.1451" y2="920.2859"/>
        </g>
        <g id="LINES_7" style="stroke:#ff0000;">
          <line x1="412.3171" y1="824.0586" x2="459.6094" y2="888.3797"/>
        </g>
        <g id="LINES_8" style="stroke:#ff0000;">
          <line x1="412.3171" y1="824.0586" x2="210.2623" y2="891.9281"/>
        </g>
        <g id="LINES_9" style="stroke:#ff0000;">
          <line x1="390.5579" y1="755.6325" x2="400.0906" y2="949.6975"/>
        </g>
        <g id="LINES_10" style="stroke:#ff0000;">
          <line x1="459.6094" y1="888.3797" x2="170.4187" y2="818.0957"/>
        </g>
        <g id="LINES_11" style="stroke:#ff0000;">
          <line x1="353.1451" y1="920.2859" x2="210.2623" y2="891.9281"/>
        </g>
        <g id="LINES_12" style="stroke:#ff0000;">
          <line x1="353.1451" y1="920.2859" x2="532.0583" y2="976.8535"/>
        </g>
        <g id="LINES_13" style="stroke:#ff0000;">
          <line x1="210.2623" y1="891.9281" x2="386.0134" y2="1107.0613"/>
        </g>
        <g id="LINES_14" style="stroke:#ff0000;">
          <line x1="532.0583" y1="976.8535" x2="473.9010" y2="1224.6031"/>
        </g>
        <g id="LINES_15" style="stroke:#ff0000;">
          <line x1="386.0134" y1="1107.0613" x2="335.6463" y2="960.9715"/>
        </g>
        <circle cx="348.6887" cy="682.4863" r="3" style="stroke:#ff0000;"/>
        <circle cx="510.5040" cy="612.7620" r="3" style="stroke:#ff0000;"/>
        <circle cx="259.1384" cy="730.5579" r="3" style="stroke:#ff0000;"/>
        <circle cx="452.6615" cy="773.6951" r="3" style="stroke:#ff0000;"/>
        <circle cx="486.3534" cy="634.5728" r="3" style="stroke:#ff0000;"/>
        <circle cx="552.8221" cy="571.6798" r="3" style="stroke:#ff0000;"/>
        <circle cx="412.3171" cy="824.0586" r="3" style="stroke:#ff0000;"/>
        <circle cx="390.5579" cy="755.6325" r="3" style="stroke:#ff0000;"/>
        <circle cx="459.6094" cy="888.3797" r="3" style="stroke:#ff0000;"/>
        <circle cx="400.0906" cy="949.6975" r="3" style="stroke:#ff0000;"/>
        <circle cx="170.4187" cy="818.0957" r="3" style="stroke:#ff0000;"/>
        <circle cx="353.1451" cy="920.2859" r="3" style="stroke:#ff0000;"/>
        <circle cx="210.2623" cy="891.9281" r="3" style="stroke:#ff0000;"/>
        <circle cx="532.0583" cy="976.8535" r="3" style="stroke:#ff0000;"/>
        <circle cx="386.0134" cy="1107.0613" r="3" style="stroke:#ff0000;"/>
        <circle cx="473.9010" cy="1224.6031" r="3" style="stroke:#ff0000;"/>
        <circle cx="335.6463" cy="960.9715" r="3" style="stroke:#ff0000;"/>
      </g>
    </g>
  </g>
</g>
</svg>