<!-- doog_skele.svg -->
<!-- Generated using p5.plotSvg: -->
<!-- A Plotter-Oriented SVG Exporter for p5.js -->
<!-- Fri Jan 31 2025 18:04:10 GMT-0600 (Central Standard Time) -->
<!-- DPI: 96 -->
<svg xmlns="http://www.w3.org/2000/svg" width="3.5in" height="2in" viewBox="0 0 336 192">
  <style>
      circle, ellipse, line, path, polygon, polyline, rect, quad, text {
        fill: none;
        stroke: black;
        stroke-width: 1;
        stroke-linecap: round;
        stroke-linejoin: round;
        vector-effect: non-scaling-stroke;
      }
    </style>
<g vector-effect="non-scaling-stroke">
  <g>
    <g transform="translate(0, -100)">
      <g transform="scale(0.250000, 0.250000)">
        <g id="LINES_0" style="stroke:#ff0000;">
          <line x1="354.1786" y1="651.5788" x2="388.0816" y2="617.6743"/>
        </g>
        <g id="LINES_1" style="stroke:#ff0000;">
          <line x1="354.1786" y1="651.5788" x2="340.8266" y2="618.2489"/>
        </g>
        <g id="LINES_2" style="stroke:#ff0000;">
          <line x1="388.0816" y1="617.6743" x2="421.1222" y2="644.6459"/>
        </g>
        <g id="LINES_3" style="stroke:#ff0000;">
          <line x1="340.8266" y1="618.2489" x2="367.8929" y2="601.5039"/>
        </g>
        <g id="LINES_4" style="stroke:#ff0000;">
          <line x1="428.7556" y1="726.8702" x2="312.9073" y2="678.2560"/>
        </g>
        <g id="LINES_5" style="stroke:#ff0000;">
          <line x1="428.7556" y1="726.8702" x2="497.3324" y2="791.2768"/>
        </g>
        <g id="LINES_6" style="stroke:#ff0000;">
          <line x1="428.7556" y1="726.8702" x2="392.1173" y2="817.6432"/>
        </g>
        <g id="LINES_7" style="stroke:#ff0000;">
          <line x1="312.9073" y1="678.2560" x2="294.1759" y2="759.8594"/>
        </g>
        <g id="LINES_8" style="stroke:#ff0000;">
          <line x1="312.9073" y1="678.2560" x2="321.8548" y2="864.9432"/>
        </g>
        <g id="LINES_9" style="stroke:#ff0000;">
          <line x1="497.3324" y1="791.2768" x2="499.4585" y2="900.9551"/>
        </g>
        <g id="LINES_10" style="stroke:#ff0000;">
          <line x1="294.1759" y1="759.8594" x2="266.2776" y2="796.2912"/>
        </g>
        <g id="LINES_11" style="stroke:#ff0000;">
          <line x1="392.1173" y1="817.6432" x2="321.8548" y2="864.9432"/>
        </g>
        <g id="LINES_12" style="stroke:#ff0000;">
          <line x1="392.1173" y1="817.6432" x2="400.7237" y2="973.4803"/>
        </g>
        <g id="LINES_13" style="stroke:#ff0000;">
          <line x1="321.8548" y1="864.9432" x2="311.5226" y2="990.4089"/>
        </g>
        <g id="LINES_14" style="stroke:#ff0000;">
          <line x1="400.7237" y1="973.4803" x2="466.7777" y2="1131.1626"/>
        </g>
        <g id="LINES_15" style="stroke:#ff0000;">
          <line x1="311.5226" y1="990.4089" x2="329.2994" y2="1140.4472"/>
        </g>
        <circle cx="354.1786" cy="651.5788" r="3" style="stroke:#ff0000;"/>
        <circle cx="388.0816" cy="617.6743" r="3" style="stroke:#ff0000;"/>
        <circle cx="340.8266" cy="618.2489" r="3" style="stroke:#ff0000;"/>
        <circle cx="421.1222" cy="644.6459" r="3" style="stroke:#ff0000;"/>
        <circle cx="367.8929" cy="601.5039" r="3" style="stroke:#ff0000;"/>
        <circle cx="428.7556" cy="726.8702" r="3" style="stroke:#ff0000;"/>
        <circle cx="312.9073" cy="678.2560" r="3" style="stroke:#ff0000;"/>
        <circle cx="497.3324" cy="791.2768" r="3" style="stroke:#ff0000;"/>
        <circle cx="294.1759" cy="759.8594" r="3" style="stroke:#ff0000;"/>
        <circle cx="499.4585" cy="900.9551" r="3" style="stroke:#ff0000;"/>
        <circle cx="266.2776" cy="796.2912" r="3" style="stroke:#ff0000;"/>
        <circle cx="392.1173" cy="817.6432" r="3" style="stroke:#ff0000;"/>
        <circle cx="321.8548" cy="864.9432" r="3" style="stroke:#ff0000;"/>
        <circle cx="400.7237" cy="973.4803" r="3" style="stroke:#ff0000;"/>
        <circle cx="311.5226" cy="990.4089" r="3" style="stroke:#ff0000;"/>
        <circle cx="466.7777" cy="1131.1626" r="3" style="stroke:#ff0000;"/>
        <circle cx="329.2994" cy="1140.4472" r="3" style="stroke:#ff0000;"/>
      </g>
    </g>
  </g>
</g>
</svg>