<!-- doog_skele_crumple250.svg -->
<!-- Generated using p5.plotSvg: -->
<!-- A Plotter-Oriented SVG Exporter for p5.js -->
<!-- Fri Jan 31 2025 18:21:46 GMT-0600 (Central Standard Time) -->
<!-- DPI: 96 -->
<svg xmlns="http://www.w3.org/2000/svg" width="3.5in" height="2in" viewBox="0 0 336 192">
  <style>
      circle, ellipse, line, path, polygon, polyline, rect, quad, text {
        fill: none;
        stroke: black;
        stroke-width: 1;
        stroke-linecap: round;
        stroke-linejoin: round;
        vector-effect: non-scaling-stroke;
      }
    </style>
<g vector-effect="non-scaling-stroke">
  <g>
    <g transform="translate(0, -100)">
      <g transform="scale(0.250000, 0.250000)">
        <g id="LINES_0" style="stroke:#ff0000;">
          <line x1="298.0792" y1="621.4371" x2="502.0092" y2="616.3639"/>
        </g>
        <g id="LINES_1" style="stroke:#ff0000;">
          <line x1="298.0792" y1="621.4371" x2="356.4612" y2="607.3511"/>
        </g>
        <g id="LINES_2" style="stroke:#ff0000;">
          <line x1="502.0092" y1="616.3639" x2="464.0597" y2="722.6922"/>
        </g>
        <g id="LINES_3" style="stroke:#ff0000;">
          <line x1="356.4612" y1="607.3511" x2="508.9042" y2="521.0611"/>
        </g>
        <g id="LINES_4" style="stroke:#ff0000;">
          <line x1="437.8097" y1="615.4212" x2="434.2705" y2="722.3274"/>
        </g>
        <g id="LINES_5" style="stroke:#ff0000;">
          <line x1="437.8097" y1="615.4212" x2="441.3964" y2="903.8594"/>
        </g>
        <g id="LINES_6" style="stroke:#ff0000;">
          <line x1="437.8097" y1="615.4212" x2="496.6921" y2="938.1314"/>
        </g>
        <g id="LINES_7" style="stroke:#ff0000;">
          <line x1="434.2705" y1="722.3274" x2="435.8383" y2="883.4256"/>
        </g>
        <g id="LINES_8" style="stroke:#ff0000;">
          <line x1="434.2705" y1="722.3274" x2="352.2154" y2="729.1957"/>
        </g>
        <g id="LINES_9" style="stroke:#ff0000;">
          <line x1="441.3964" y1="903.8594" x2="395.8040" y2="796.7269"/>
        </g>
        <g id="LINES_10" style="stroke:#ff0000;">
          <line x1="435.8383" y1="883.4256" x2="430.1148" y2="963.4450"/>
        </g>
        <g id="LINES_11" style="stroke:#ff0000;">
          <line x1="496.6921" y1="938.1314" x2="352.2154" y2="729.1957"/>
        </g>
        <g id="LINES_12" style="stroke:#ff0000;">
          <line x1="496.6921" y1="938.1314" x2="306.8593" y2="1098.9478"/>
        </g>
        <g id="LINES_13" style="stroke:#ff0000;">
          <line x1="352.2154" y1="729.1957" x2="397.0321" y2="971.4217"/>
        </g>
        <g id="LINES_14" style="stroke:#ff0000;">
          <line x1="306.8593" y1="1098.9478" x2="522.4082" y2="1052.4151"/>
        </g>
        <g id="LINES_15" style="stroke:#ff0000;">
          <line x1="397.0321" y1="971.4217" x2="254.6166" y2="1180.7401"/>
        </g>
        <circle cx="298.0792" cy="621.4371" r="3" style="stroke:#ff0000;"/>
        <circle cx="502.0092" cy="616.3639" r="3" style="stroke:#ff0000;"/>
        <circle cx="356.4612" cy="607.3511" r="3" style="stroke:#ff0000;"/>
        <circle cx="464.0597" cy="722.6922" r="3" style="stroke:#ff0000;"/>
        <circle cx="508.9042" cy="521.0611" r="3" style="stroke:#ff0000;"/>
        <circle cx="437.8097" cy="615.4212" r="3" style="stroke:#ff0000;"/>
        <circle cx="434.2705" cy="722.3274" r="3" style="stroke:#ff0000;"/>
        <circle cx="441.3964" cy="903.8594" r="3" style="stroke:#ff0000;"/>
        <circle cx="435.8383" cy="883.4256" r="3" style="stroke:#ff0000;"/>
        <circle cx="395.8040" cy="796.7269" r="3" style="stroke:#ff0000;"/>
        <circle cx="430.1148" cy="963.4450" r="3" style="stroke:#ff0000;"/>
        <circle cx="496.6921" cy="938.1314" r="3" style="stroke:#ff0000;"/>
        <circle cx="352.2154" cy="729.1957" r="3" style="stroke:#ff0000;"/>
        <circle cx="306.8593" cy="1098.9478" r="3" style="stroke:#ff0000;"/>
        <circle cx="397.0321" cy="971.4217" r="3" style="stroke:#ff0000;"/>
        <circle cx="522.4082" cy="1052.4151" r="3" style="stroke:#ff0000;"/>
        <circle cx="254.6166" cy="1180.7401" r="3" style="stroke:#ff0000;"/>
      </g>
    </g>
  </g>
</g>
</svg>