<!-- doog_skele.svg -->
<!-- Generated using p5.plotSvg: -->
<!-- A Plotter-Oriented SVG Exporter for p5.js -->
<!-- Fri Jan 31 2025 17:42:02 GMT-0600 (Central Standard Time) -->
<!-- DPI: 96 -->
<svg xmlns="http://www.w3.org/2000/svg" width="3.5in" height="2in" viewBox="0 0 336 192">
  <style>
      circle, ellipse, line, path, polygon, polyline, rect, quad, text {
        fill: none;
        stroke: black;
        stroke-width: 1;
        stroke-linecap: round;
        stroke-linejoin: round;
        vector-effect: non-scaling-stroke;
      }
    </style>
<g vector-effect="non-scaling-stroke">
  <g>
    <g transform="translate(0, -100)">
      <g transform="scale(0.250000, 0.250000)">
        <g id="LINES_0" style="stroke:#ff0000;">
          <line x1="381" y1="648" x2="390" y2="633"/>
        </g>
        <g id="LINES_1" style="stroke:#ff0000;">
          <line x1="381" y1="648" x2="379" y2="637"/>
        </g>
        <g id="LINES_2" style="stroke:#ff0000;">
          <line x1="390" y1="633" x2="418" y2="643"/>
        </g>
        <g id="LINES_3" style="stroke:#ff0000;">
          <line x1="379" y1="637" x2="405" y2="645"/>
        </g>
        <g id="LINES_4" style="stroke:#ff0000;">
          <line x1="460" y1="700" x2="354" y2="704"/>
        </g>
        <g id="LINES_5" style="stroke:#ff0000;">
          <line x1="460" y1="700" x2="468" y2="785"/>
        </g>
        <g id="LINES_6" style="stroke:#ff0000;">
          <line x1="460" y1="700" x2="430" y2="845"/>
        </g>
        <g id="LINES_7" style="stroke:#ff0000;">
          <line x1="354" y1="704" x2="336" y2="777"/>
        </g>
        <g id="LINES_8" style="stroke:#ff0000;">
          <line x1="354" y1="704" x2="332" y2="851"/>
        </g>
        <g id="LINES_9" style="stroke:#ff0000;">
          <line x1="468" y1="785" x2="459" y2="853"/>
        </g>
        <g id="LINES_10" style="stroke:#ff0000;">
          <line x1="336" y1="777" x2="310" y2="843"/>
        </g>
        <g id="LINES_11" style="stroke:#ff0000;">
          <line x1="430" y1="845" x2="332" y2="851"/>
        </g>
        <g id="LINES_12" style="stroke:#ff0000;">
          <line x1="430" y1="845" x2="419" y2="978"/>
        </g>
        <g id="LINES_13" style="stroke:#ff0000;">
          <line x1="332" y1="851" x2="320" y2="974"/>
        </g>
        <g id="LINES_14" style="stroke:#ff0000;">
          <line x1="419" y1="978" x2="421" y2="1111"/>
        </g>
        <g id="LINES_15" style="stroke:#ff0000;">
          <line x1="320" y1="974" x2="295" y2="1104"/>
        </g>
        <circle cx="381" cy="648" r="3" style="stroke:#ff0000;"/>
        <circle cx="390" cy="633" r="3" style="stroke:#ff0000;"/>
        <circle cx="379" cy="637" r="3" style="stroke:#ff0000;"/>
        <circle cx="418" cy="643" r="3" style="stroke:#ff0000;"/>
        <circle cx="405" cy="645" r="3" style="stroke:#ff0000;"/>
        <circle cx="460" cy="700" r="3" style="stroke:#ff0000;"/>
        <circle cx="354" cy="704" r="3" style="stroke:#ff0000;"/>
        <circle cx="468" cy="785" r="3" style="stroke:#ff0000;"/>
        <circle cx="336" cy="777" r="3" style="stroke:#ff0000;"/>
        <circle cx="459" cy="853" r="3" style="stroke:#ff0000;"/>
        <circle cx="310" cy="843" r="3" style="stroke:#ff0000;"/>
        <circle cx="430" cy="845" r="3" style="stroke:#ff0000;"/>
        <circle cx="332" cy="851" r="3" style="stroke:#ff0000;"/>
        <circle cx="419" cy="978" r="3" style="stroke:#ff0000;"/>
        <circle cx="320" cy="974" r="3" style="stroke:#ff0000;"/>
        <circle cx="421" cy="1111" r="3" style="stroke:#ff0000;"/>
        <circle cx="295" cy="1104" r="3" style="stroke:#ff0000;"/>
      </g>
    </g>
  </g>
</g>
</svg>