<!-- doog_skele.svg -->
<!-- Generated using p5.plotSvg: -->
<!-- A Plotter-Oriented SVG Exporter for p5.js -->
<!-- Fri Jan 31 2025 18:07:24 GMT-0600 (Central Standard Time) -->
<!-- DPI: 96 -->
<svg xmlns="http://www.w3.org/2000/svg" width="3.5in" height="2in" viewBox="0 0 336 192">
  <style>
      circle, ellipse, line, path, polygon, polyline, rect, quad, text {
        fill: none;
        stroke: black;
        stroke-width: 1;
        stroke-linecap: round;
        stroke-linejoin: round;
        vector-effect: non-scaling-stroke;
      }
    </style>
<g vector-effect="non-scaling-stroke">
  <g>
    <g transform="translate(0, -100)">
      <g transform="scale(0.250000, 0.250000)">
        <g id="LINES_0" style="stroke:#ff0000;">
          <line x1="527.4340" y1="770.7993" x2="437.1086" y2="753.0037"/>
        </g>
        <g id="LINES_1" style="stroke:#ff0000;">
          <line x1="527.4340" y1="770.7993" x2="307.9475" y2="608.9744"/>
        </g>
        <g id="LINES_2" style="stroke:#ff0000;">
          <line x1="437.1086" y1="753.0037" x2="274.1731" y2="601.6879"/>
        </g>
        <g id="LINES_3" style="stroke:#ff0000;">
          <line x1="307.9475" y1="608.9744" x2="487.3289" y2="667.4429"/>
        </g>
        <g id="LINES_4" style="stroke:#ff0000;">
          <line x1="503.1704" y1="634.4833" x2="415.0685" y2="664.7835"/>
        </g>
        <g id="LINES_5" style="stroke:#ff0000;">
          <line x1="503.1704" y1="634.4833" x2="516.5177" y2="742.2429"/>
        </g>
        <g id="LINES_6" style="stroke:#ff0000;">
          <line x1="503.1704" y1="634.4833" x2="447.3352" y2="708.8732"/>
        </g>
        <g id="LINES_7" style="stroke:#ff0000;">
          <line x1="415.0685" y1="664.7835" x2="344.6536" y2="760.1226"/>
        </g>
        <g id="LINES_8" style="stroke:#ff0000;">
          <line x1="415.0685" y1="664.7835" x2="217.5938" y2="775.1246"/>
        </g>
        <g id="LINES_9" style="stroke:#ff0000;">
          <line x1="516.5177" y1="742.2429" x2="567.1973" y2="846.9297"/>
        </g>
        <g id="LINES_10" style="stroke:#ff0000;">
          <line x1="344.6536" y1="760.1226" x2="446.5054" y2="783.3723"/>
        </g>
        <g id="LINES_11" style="stroke:#ff0000;">
          <line x1="447.3352" y1="708.8732" x2="217.5938" y2="775.1246"/>
        </g>
        <g id="LINES_12" style="stroke:#ff0000;">
          <line x1="447.3352" y1="708.8732" x2="498.5788" y2="1032.6476"/>
        </g>
        <g id="LINES_13" style="stroke:#ff0000;">
          <line x1="217.5938" y1="775.1246" x2="424.8910" y2="940.9261"/>
        </g>
        <g id="LINES_14" style="stroke:#ff0000;">
          <line x1="498.5788" y1="1032.6476" x2="539.7982" y2="1220.4545"/>
        </g>
        <g id="LINES_15" style="stroke:#ff0000;">
          <line x1="424.8910" y1="940.9261" x2="313.2787" y2="1057.4769"/>
        </g>
        <circle cx="527.4340" cy="770.7993" r="3" style="stroke:#ff0000;"/>
        <circle cx="437.1086" cy="753.0037" r="3" style="stroke:#ff0000;"/>
        <circle cx="307.9475" cy="608.9744" r="3" style="stroke:#ff0000;"/>
        <circle cx="274.1731" cy="601.6879" r="3" style="stroke:#ff0000;"/>
        <circle cx="487.3289" cy="667.4429" r="3" style="stroke:#ff0000;"/>
        <circle cx="503.1704" cy="634.4833" r="3" style="stroke:#ff0000;"/>
        <circle cx="415.0685" cy="664.7835" r="3" style="stroke:#ff0000;"/>
        <circle cx="516.5177" cy="742.2429" r="3" style="stroke:#ff0000;"/>
        <circle cx="344.6536" cy="760.1226" r="3" style="stroke:#ff0000;"/>
        <circle cx="567.1973" cy="846.9297" r="3" style="stroke:#ff0000;"/>
        <circle cx="446.5054" cy="783.3723" r="3" style="stroke:#ff0000;"/>
        <circle cx="447.3352" cy="708.8732" r="3" style="stroke:#ff0000;"/>
        <circle cx="217.5938" cy="775.1246" r="3" style="stroke:#ff0000;"/>
        <circle cx="498.5788" cy="1032.6476" r="3" style="stroke:#ff0000;"/>
        <circle cx="424.8910" cy="940.9261" r="3" style="stroke:#ff0000;"/>
        <circle cx="539.7982" cy="1220.4545" r="3" style="stroke:#ff0000;"/>
        <circle cx="313.2787" cy="1057.4769" r="3" style="stroke:#ff0000;"/>
      </g>
    </g>
  </g>
</g>
</svg>