<!-- doog_skele.svg -->
<!-- Generated using p5.plotSvg: -->
<!-- A Plotter-Oriented SVG Exporter for p5.js -->
<!-- Fri Jan 31 2025 18:04:13 GMT-0600 (Central Standard Time) -->
<!-- DPI: 96 -->
<svg xmlns="http://www.w3.org/2000/svg" width="3.5in" height="2in" viewBox="0 0 336 192">
  <style>
      circle, ellipse, line, path, polygon, polyline, rect, quad, text {
        fill: none;
        stroke: black;
        stroke-width: 1;
        stroke-linecap: round;
        stroke-linejoin: round;
        vector-effect: non-scaling-stroke;
      }
    </style>
<g vector-effect="non-scaling-stroke">
  <g>
    <g transform="translate(0, -100)">
      <g transform="scale(0.250000, 0.250000)">
        <g id="LINES_0" style="stroke:#ff0000;">
          <line x1="341.9498" y1="696.4616" x2="432.3031" y2="590.4312"/>
        </g>
        <g id="LINES_1" style="stroke:#ff0000;">
          <line x1="341.9498" y1="696.4616" x2="423.8733" y2="675.3154"/>
        </g>
        <g id="LINES_2" style="stroke:#ff0000;">
          <line x1="432.3031" y1="590.4312" x2="382.7514" y2="630.1043"/>
        </g>
        <g id="LINES_3" style="stroke:#ff0000;">
          <line x1="423.8733" y1="675.3154" x2="421.6022" y2="676.9588"/>
        </g>
        <g id="LINES_4" style="stroke:#ff0000;">
          <line x1="433.6670" y1="698.6497" x2="331.4169" y2="672.7922"/>
        </g>
        <g id="LINES_5" style="stroke:#ff0000;">
          <line x1="433.6670" y1="698.6497" x2="486.8041" y2="780.1100"/>
        </g>
        <g id="LINES_6" style="stroke:#ff0000;">
          <line x1="433.6670" y1="698.6497" x2="425.3735" y2="798.0799"/>
        </g>
        <g id="LINES_7" style="stroke:#ff0000;">
          <line x1="331.4169" y1="672.7922" x2="372.3317" y2="806.6141"/>
        </g>
        <g id="LINES_8" style="stroke:#ff0000;">
          <line x1="331.4169" y1="672.7922" x2="318.5876" y2="835.4981"/>
        </g>
        <g id="LINES_9" style="stroke:#ff0000;">
          <line x1="486.8041" y1="780.1100" x2="438.5521" y2="880.2260"/>
        </g>
        <g id="LINES_10" style="stroke:#ff0000;">
          <line x1="372.3317" y1="806.6141" x2="308.4650" y2="887.0695"/>
        </g>
        <g id="LINES_11" style="stroke:#ff0000;">
          <line x1="425.3735" y1="798.0799" x2="318.5876" y2="835.4981"/>
        </g>
        <g id="LINES_12" style="stroke:#ff0000;">
          <line x1="425.3735" y1="798.0799" x2="454.5947" y2="941.2013"/>
        </g>
        <g id="LINES_13" style="stroke:#ff0000;">
          <line x1="318.5876" y1="835.4981" x2="325.8669" y2="976.2693"/>
        </g>
        <g id="LINES_14" style="stroke:#ff0000;">
          <line x1="454.5947" y1="941.2013" x2="416.1555" y2="1151.0833"/>
        </g>
        <g id="LINES_15" style="stroke:#ff0000;">
          <line x1="325.8669" y1="976.2693" x2="298.4590" y2="1147.2734"/>
        </g>
        <circle cx="341.9498" cy="696.4616" r="3" style="stroke:#ff0000;"/>
        <circle cx="432.3031" cy="590.4312" r="3" style="stroke:#ff0000;"/>
        <circle cx="423.8733" cy="675.3154" r="3" style="stroke:#ff0000;"/>
        <circle cx="382.7514" cy="630.1043" r="3" style="stroke:#ff0000;"/>
        <circle cx="421.6022" cy="676.9588" r="3" style="stroke:#ff0000;"/>
        <circle cx="433.6670" cy="698.6497" r="3" style="stroke:#ff0000;"/>
        <circle cx="331.4169" cy="672.7922" r="3" style="stroke:#ff0000;"/>
        <circle cx="486.8041" cy="780.1100" r="3" style="stroke:#ff0000;"/>
        <circle cx="372.3317" cy="806.6141" r="3" style="stroke:#ff0000;"/>
        <circle cx="438.5521" cy="880.2260" r="3" style="stroke:#ff0000;"/>
        <circle cx="308.4650" cy="887.0695" r="3" style="stroke:#ff0000;"/>
        <circle cx="425.3735" cy="798.0799" r="3" style="stroke:#ff0000;"/>
        <circle cx="318.5876" cy="835.4981" r="3" style="stroke:#ff0000;"/>
        <circle cx="454.5947" cy="941.2013" r="3" style="stroke:#ff0000;"/>
        <circle cx="325.8669" cy="976.2693" r="3" style="stroke:#ff0000;"/>
        <circle cx="416.1555" cy="1151.0833" r="3" style="stroke:#ff0000;"/>
        <circle cx="298.4590" cy="1147.2734" r="3" style="stroke:#ff0000;"/>
      </g>
    </g>
  </g>
</g>
</svg>