<!-- doog_skele_crumple250.svg -->
<!-- Generated using p5.plotSvg: -->
<!-- A Plotter-Oriented SVG Exporter for p5.js -->
<!-- Fri Jan 31 2025 18:21:38 GMT-0600 (Central Standard Time) -->
<!-- DPI: 96 -->
<svg xmlns="http://www.w3.org/2000/svg" width="3.5in" height="2in" viewBox="0 0 336 192">
  <style>
      circle, ellipse, line, path, polygon, polyline, rect, quad, text {
        fill: none;
        stroke: black;
        stroke-width: 1;
        stroke-linecap: round;
        stroke-linejoin: round;
        vector-effect: non-scaling-stroke;
      }
    </style>
<g vector-effect="non-scaling-stroke">
  <g>
    <g transform="translate(0, -100)">
      <g transform="scale(0.250000, 0.250000)">
        <g id="LINES_0" style="stroke:#ff0000;">
          <line x1="317.6298" y1="686.1397" x2="375.0894" y2="747.3977"/>
        </g>
        <g id="LINES_1" style="stroke:#ff0000;">
          <line x1="317.6298" y1="686.1397" x2="399.1540" y2="671.3328"/>
        </g>
        <g id="LINES_2" style="stroke:#ff0000;">
          <line x1="375.0894" y1="747.3977" x2="324.9603" y2="552.4677"/>
        </g>
        <g id="LINES_3" style="stroke:#ff0000;">
          <line x1="399.1540" y1="671.3328" x2="478.2981" y2="715.8896"/>
        </g>
        <g id="LINES_4" style="stroke:#ff0000;">
          <line x1="466.0406" y1="623.2392" x2="343.7317" y2="743.9545"/>
        </g>
        <g id="LINES_5" style="stroke:#ff0000;">
          <line x1="466.0406" y1="623.2392" x2="473.0487" y2="750.0090"/>
        </g>
        <g id="LINES_6" style="stroke:#ff0000;">
          <line x1="466.0406" y1="623.2392" x2="454.1505" y2="966.8594"/>
        </g>
        <g id="LINES_7" style="stroke:#ff0000;">
          <line x1="343.7317" y1="743.9545" x2="436.2389" y2="764.0252"/>
        </g>
        <g id="LINES_8" style="stroke:#ff0000;">
          <line x1="343.7317" y1="743.9545" x2="316.8393" y2="863.4237"/>
        </g>
        <g id="LINES_9" style="stroke:#ff0000;">
          <line x1="473.0487" y1="750.0090" x2="577.3496" y2="945.1937"/>
        </g>
        <g id="LINES_10" style="stroke:#ff0000;">
          <line x1="436.2389" y1="764.0252" x2="260.8239" y2="729.0735"/>
        </g>
        <g id="LINES_11" style="stroke:#ff0000;">
          <line x1="454.1505" y1="966.8594" x2="316.8393" y2="863.4237"/>
        </g>
        <g id="LINES_12" style="stroke:#ff0000;">
          <line x1="454.1505" y1="966.8594" x2="516.1578" y2="854.5330"/>
        </g>
        <g id="LINES_13" style="stroke:#ff0000;">
          <line x1="316.8393" y1="863.4237" x2="235.5932" y2="881.8608"/>
        </g>
        <g id="LINES_14" style="stroke:#ff0000;">
          <line x1="516.1578" y1="854.5330" x2="453.9460" y2="1208.3310"/>
        </g>
        <g id="LINES_15" style="stroke:#ff0000;">
          <line x1="235.5932" y1="881.8608" x2="417.7713" y2="1087.2718"/>
        </g>
        <circle cx="317.6298" cy="686.1397" r="3" style="stroke:#ff0000;"/>
        <circle cx="375.0894" cy="747.3977" r="3" style="stroke:#ff0000;"/>
        <circle cx="399.1540" cy="671.3328" r="3" style="stroke:#ff0000;"/>
        <circle cx="324.9603" cy="552.4677" r="3" style="stroke:#ff0000;"/>
        <circle cx="478.2981" cy="715.8896" r="3" style="stroke:#ff0000;"/>
        <circle cx="466.0406" cy="623.2392" r="3" style="stroke:#ff0000;"/>
        <circle cx="343.7317" cy="743.9545" r="3" style="stroke:#ff0000;"/>
        <circle cx="473.0487" cy="750.0090" r="3" style="stroke:#ff0000;"/>
        <circle cx="436.2389" cy="764.0252" r="3" style="stroke:#ff0000;"/>
        <circle cx="577.3496" cy="945.1937" r="3" style="stroke:#ff0000;"/>
        <circle cx="260.8239" cy="729.0735" r="3" style="stroke:#ff0000;"/>
        <circle cx="454.1505" cy="966.8594" r="3" style="stroke:#ff0000;"/>
        <circle cx="316.8393" cy="863.4237" r="3" style="stroke:#ff0000;"/>
        <circle cx="516.1578" cy="854.5330" r="3" style="stroke:#ff0000;"/>
        <circle cx="235.5932" cy="881.8608" r="3" style="stroke:#ff0000;"/>
        <circle cx="453.9460" cy="1208.3310" r="3" style="stroke:#ff0000;"/>
        <circle cx="417.7713" cy="1087.2718" r="3" style="stroke:#ff0000;"/>
      </g>
    </g>
  </g>
</g>
</svg>